<svg id="Ebene_1" xmlns="http://www.w3.org/2000/svg" viewBox="0 0 942.47 105.34">
    <title>roastmarket-logo</title>
    <path d="M168.48,55.6c-7,0-10.2-4.8-10.2-10.8a31.38,31.38,0,0,1,.6-5.1c-9,6.15-13.2,23.25-13.2,44.4,0,12.45,3.9,12.9,14.1,13.2v6H113.13v-6c9,0,11.55-2.1,11.55-9.45V48.25c0-7.35-2.55-9.45-11.55-9.45V33.4l31.65-.6V48.85h.3C150.33,36.7,156.93,31,165.33,31c8.25,0,13.95,5.7,13.95,12.9S174.93,55.6,168.48,55.6Z"/>
    <path d="M224.58,105.1c-25.2,0-39.3-19.8-39.3-37,0-18.45,15.15-37,39.3-37s39.3,18.75,39.3,37.05S248.88,105.1,224.58,105.1Zm14.1-37c0-19.65-4.65-31.65-14.25-31.65-8.55,0-14,10.65-14,31.65,0,19.65,4.65,31.65,14.1,31.65S238.68,87.55,238.68,68.05Z"/>
    <path d="M336.92,86.8c0,5.25,1.05,8.4,4.65,8.4,3.3,0,4.8-4.8,5.55-10.8h5.1v1.65c0,7.35-2,11-5.1,14.25s-8.25,4.8-13.8,4.8c-7.64,0-12.29-3.15-15.74-9.75-5.7,7.05-12.75,9.75-21.6,9.75-14.25,0-23.4-6.15-23.4-17.55,0-8.55,5.85-15.75,18.75-21.15,6.45-2.7,13.65-4.8,23.7-7.35V50.5c0-8.85-4-12.6-13.5-12.6a20.32,20.32,0,0,0-10,2.4v.3c4.65.6,8.25,4.2,8.25,9.75A10.34,10.34,0,0,1,289.08,60.7c-6.6,0-11.25-4.35-11.25-11.55,0-10,11.85-18.15,31.35-18.15,18.44,0,27.74,6.6,27.74,20.4ZM315,82.9V65.8c-10.8,2.55-19.35,10.65-19.35,20,0,5.85,2.55,11.25,9.15,11.25S315,91.15,315,82.9Z"/>
    <path d="M408.62,32.8h6V55.9h-6C402.78,41.35,396,37,386.73,37c-7.65,0-12,4.5-12,10,0,5.25,5.1,7.35,15.3,9.3,6.75,1.35,12.44,2.55,16.8,4.5,8.84,3.9,12.89,10.05,12.89,19.5,0,14.4-13.94,24.75-30.29,24.75-12.6,0-20.1-5.1-22.35-5.1-1.65,0-3,2.25-3.45,4.2h-6V77.5h5.55c2.85,12,13.2,21.6,24.45,21.6,8.25,0,14.7-4.5,14.7-9.45,0-6.6-5.4-9-16.05-11-8.1-1.5-14.25-2.85-18.75-5.25-7.35-3.9-10.2-10.2-10.2-18.3,0-12.9,12.15-24.15,28.95-24.15,9.9,0,16.65,5.4,18.9,5.4S407.58,35.05,408.62,32.8Z"/>
    <path d="M461.27,9.4V32.8h23.55v6.9H461V85.6c0,8.25,2.55,11.7,8.7,11.7,6.45,0,10.05-4.35,10.35-18h6.6c0,18.45-5.85,25.8-24.45,25.8-15.15,0-23.1-7.5-23.1-19.95V39.7H426.78V34c13.79-3.3,23.09-10.35,27.89-24.6Z"/>
    <path d="M575.12,31c14.55,0,22.2,9.3,22.2,21.45v40.8c0,4.2,2.25,5.85,12.3,5.85v4.2h-22.5V53.2c0-10.35-4.2-18-13.35-18C563.27,35.2,555,46,555,55.45v37.8c0,4.2,2.25,5.85,12.3,5.85v4.2h-22.5V53.2c0-10.35-4.2-18-13.35-18-10.8,0-18.75,10.95-18.75,20.25v38c0,3.6,1.35,5.7,12,5.7v4.2h-35V99.1h.9c10.95,0,11.85-2.7,11.85-6V42.7c0-3.6-1.65-5.7-11.85-5.7V32.8l21.9-.9V42.25h.3c5.4-7.2,10.35-11.25,19.8-11.25,11.25,0,18.45,5.25,21.6,13.65C558.62,35.65,566.27,31,575.12,31Z"/>
    <path d="M668.42,93.1c0,4.05,1.65,5.1,4.05,5.1,2.85,0,4.65-2.7,4.65-11.7h4.2c0,10-2.85,16.8-12.3,16.8-6.6,0-10.2-4.35-10.5-12.9h-.3c-4.2,8.25-12,14.7-23,14.7S615,98.05,615,87.55c0-14,16.65-21,29.7-24.3l13.5-3.45V48.7c0-7.65-4.35-13.5-15.3-13.5a28.42,28.42,0,0,0-16.8,5.4l.3.3a6.36,6.36,0,0,1,6.3,6.45c0,3.6-2.4,7.35-7.05,7.35-4.2,0-6.75-3.15-6.75-8.4,0-8.4,10.5-15.3,23.85-15.3,18.45,0,25.65,7.5,25.65,21.3ZM658.22,75V63.7c-.75.3-5.85,1.2-11.7,3-9.15,2.7-20.1,8.7-20.1,21.75,0,7,6.15,11.55,12.3,11.55C649.67,100,658.22,87.55,658.22,75Z"/>
    <path d="M732.77,48.7c-4,0-6.9-2.1-6.9-6.75a6.16,6.16,0,0,1,3.6-6,2.58,2.58,0,0,0-2.25-.75c-4.65,0-11.55,4.95-15.6,16.8-3.15,9.15-3.45,22.35-3.45,36.15,0,9.3,1.35,10.95,13.5,10.95v4.2H686V99.1c10.65,0,12-2.1,12-5.7V42.7c0-3.6-1.65-5.7-11.85-5.7V32.8l22-.9v18h.3c5.4-13.8,11.85-18.9,19.65-18.9,6,0,11.55,3.6,11.55,10.35C739.67,46,736.82,48.7,732.77,48.7Z"/>
    <path d="M767,67.9l23.1-21c2.25-1.95,4.65-4.35,4.65-6.9s-3-3-11.4-3V32.8h32.1V37c-10.5.6-16,4.65-34.2,23.1l19.2,29.55c5.85,9,7.5,9.45,16.05,9.45v4.2H798L773.87,66.55l-6.9,6.3V93.4c0,4.2,2.25,5.7,12.3,5.7v4.2h-35.4V99.1c9.45,0,12.9-1,12.9-5.7V10.6c0-3.6-1.65-5.7-11.85-5.7V.7L767,.1Z"/>
    <path d="M837.17,66.4v3c0,20.85,9.6,31.5,23.1,31.5,10.65,0,16.65-3.6,23.7-14.4l3.6,2.4c-8.4,12.15-14.55,16.2-28.5,16.2-19.8,0-33.3-17.25-33.3-37,0-22,12.3-37,32.55-37,16.8,0,28.95,15,29.25,35.4Zm39-4.2c0-17.4-6.75-27-19.2-27-11.55,0-19.5,10.8-19.8,27Z"/>
    <path d="M917.57,8.65V31h22.5v4.2h-22.5V88.9c0,8.55,4.35,12,9.75,12,5.25,0,10.95-3.9,10.95-16.05V79.3h4.2v4.2c0,15.3-6.75,21.6-17.85,21.6s-17.25-6.6-17.25-16.95V35.2h-11.1V31c9.45,0,15.75-7.35,17.1-22.35Z"/>
    <path d="M18.66,104.64l34-53.83a30.53,30.53,0,0,0,2.71-18.33C53.84,24,48.9,18.78,45.07,14.81A54.49,54.49,0,0,0,19.35,0a73.54,73.54,0,0,1,5.89,13.46c1.1,3.43,1.71,5.38,1.85,8.07.1,2.07,0,6.64-3.54,13.46-4.26,8.16-8.07,9.21-13.8,16.83A58.66,58.66,0,0,0,1.5,67.3C.9,69.15-2.7,80.84,4,92.2A30.22,30.22,0,0,0,18.66,104.64Z"/>
    <path d="M62.23,27.59c.93,1.15,8.05,10.38,5.05,21.53a23,23,0,0,1-6.39,10.61,48.22,48.22,0,0,0-4.58,5,31.76,31.76,0,0,0-4.67,7.09,33.79,33.79,0,0,0-2.53,6.57,24.31,24.31,0,0,0,.55,13.83c3.09,8.61,10.72,12.35,12.41,13.12L86.8,65.47S101.1,41.38,62.23,27.59Z"/>
</svg>
